<?xml version="1.0" encoding="UTF-8" standalone="no"?>
<svg
   xmlns:dc="http://purl.org/dc/elements/1.1/"
   xmlns:cc="http://creativecommons.org/ns#"
   xmlns:rdf="http://www.w3.org/1999/02/22-rdf-syntax-ns#"
   xmlns:svg="http://www.w3.org/2000/svg"
   xmlns="http://www.w3.org/2000/svg"
   xmlns:sodipodi="http://sodipodi.sourceforge.net/DTD/sodipodi-0.dtd"
   xmlns:inkscape="http://www.inkscape.org/namespaces/inkscape"
   id="svg2443"
   viewBox="0 0 504 504"
   version="1.0"
   sodipodi:docname="portablejim-Chess-tile-Queen.svg"
   width="504"
   height="504"
   inkscape:version="1.0.1 (3bc2e813f5, 2020-09-07)">
  <defs
     id="defs29" />
  <sodipodi:namedview
     pagecolor="#ffffff"
     bordercolor="#666666"
     borderopacity="1"
     objecttolerance="10"
     gridtolerance="10"
     guidetolerance="10"
     inkscape:pageopacity="0"
     inkscape:pageshadow="2"
     inkscape:window-width="1920"
     inkscape:window-height="1001"
     id="namedview27"
     showgrid="false"
     inkscape:zoom="1.2053571"
     inkscape:cx="504"
     inkscape:cy="252"
     inkscape:window-x="-9"
     inkscape:window-y="-9"
     inkscape:window-maximized="1"
     inkscape:current-layer="svg2443" />
  <g
     id="g2466"
     transform="translate(-521.46307,-162.34741)">
    <path
       id="path2611"
       style="fill:#000000"
       d="m 180.92,473.61 c -20.71,-1.46 -39.95,-5.48 -55.39,-11.58 -9.34,-3.69 -21.01,-9.7 -22.02,-11.34 -0.32,-0.52 3.71,-10.81 8.95,-22.88 5.25,-12.06 9.54,-22.45 9.54,-23.09 0,-1.26 -15.85,-37.93 -18.99,-43.93 -1.04,-1.99 -9.971,-13.46 -19.852,-25.49 L 65.193,313.41 64.009,303.8 c -0.652,-5.3 -5.545,-44.5 -10.874,-87.12 l -9.69,-77.5 -5.696,-0.71 c -16.446,-2.06 -26.268,-16.68 -21.282,-31.69 2.119,-6.38 5.358,-10.329 11.388,-13.874 3.944,-2.318 5.777,-2.73 12.145,-2.73 6.368,0 8.201,0.412 12.145,2.73 6.03,3.545 9.269,7.494 11.388,13.874 3.618,10.89 -1.093,23.07 -11.086,28.67 -1.156,0.64 6.241,16.63 36.683,79.27 20.97,43.15 38.19,78.54 38.27,78.64 0.2,0.28 10.7,-187.8 10.65,-190.82 -0.04,-2.25 -0.67,-2.783 -4.35,-3.71 -5.97,-1.503 -12.05,-6.19 -15.38,-11.862 -2.42,-4.117 -2.82,-5.861 -2.82,-12.371 0,-6.687 0.36,-8.157 3.03,-12.5 10.05,-16.328 32.89,-16.328 42.94,0 2.68,4.354 3.03,5.804 3.03,12.579 0,6.764 -0.35,8.23 -3.02,12.578 -1.8,2.937 -5.05,6.263 -8.06,8.249 l -5.04,3.328 31.56,91.419 c 17.35,50.29 31.78,91.43 32.06,91.42 0.34,0 33.13,-186.55 35.38,-201.3 0.06,-0.448 -1.57,-1.407 -3.63,-2.136 -5.52,-1.947 -10.34,-6.006 -13.48,-11.342 -2.37,-4.034 -2.77,-5.814 -2.77,-12.295 0,-6.687 0.36,-8.157 3.03,-12.5 10.05,-16.328 32.89,-16.328 42.94,0 2.67,4.343 3.03,5.813 3.03,12.5 0,6.481 -0.4,8.261 -2.77,12.295 -3.14,5.336 -7.96,9.395 -13.48,11.342 -2.06,0.729 -3.69,1.688 -3.63,2.133 2.25,14.752 35.04,201.3 35.38,201.3 0.28,0.01 14.71,-41.13 32.06,-91.42 L 355.62,98.828 350.58,95.5 c -3.01,-1.986 -6.26,-5.312 -8.06,-8.249 -2.67,-4.348 -3.02,-5.814 -3.02,-12.578 0,-6.775 0.35,-8.225 3.03,-12.579 10.05,-16.328 32.89,-16.328 42.94,0 2.67,4.343 3.03,5.813 3.03,12.5 0,6.51 -0.4,8.254 -2.82,12.371 -3.33,5.672 -9.41,10.359 -15.38,11.862 -3.68,0.927 -4.31,1.46 -4.35,3.71 -0.05,3.02 10.45,191.1 10.65,190.82 0.08,-0.1 17.3,-35.49 38.27,-78.64 30.44,-62.64 37.84,-78.63 36.68,-79.27 -9.99,-5.6 -14.7,-17.78 -11.08,-28.67 2.12,-6.38 5.35,-10.329 11.39,-13.874 3.94,-2.318 5.77,-2.73 12.14,-2.73 6.37,0 8.2,0.412 12.14,2.73 6.03,3.545 9.27,7.494 11.39,13.874 4.99,15.01 -4.83,29.63 -21.28,31.69 l -5.69,0.71 -9.69,77.5 c -5.33,42.62 -10.23,81.82 -10.88,87.12 l -1.18,9.61 -17.97,21.89 c -9.88,12.03 -18.81,23.5 -19.85,25.49 -3.14,6 -18.99,42.67 -18.99,43.93 0,0.64 4.29,11.03 9.54,23.09 5.24,12.07 9.27,22.36 8.95,22.88 -2.29,3.71 -26.34,13.78 -41.79,17.51 -22.4,5.39 -26.88,5.66 -99.7,5.91 -37.12,0.13 -72.26,-0.1 -78.08,-0.5 z"
       transform="translate(520.31,156.54)" />
    <path
       id="path2388"
       style="fill:#ffffff"
       d="m 130.5,361.67 c 17.3,-6.48 34.44,-11.38 52.5,-15.01 26.37,-5.31 37.84,-6.37 69,-6.37 31.16,0 42.63,1.06 69,6.37 18.15,3.65 35.22,8.54 52.8,15.13 14.96,5.6 17.33,5.69 20.14,0.69 2.31,-4.12 0.55,-7.81 -5.05,-10.59 -8.28,-4.12 -32.46,-12.06 -49.1,-16.14 -32.98,-8.09 -53.46,-10.55 -87.79,-10.55 -15.57,0 -30.83,0.53 -37,1.29 -34.44,4.24 -64.52,11.5 -92.74,22.38 -10.48,4.04 -13.26,6.26 -13.26,10.57 0,2.67 4.12,7.24 6.53,7.24 0.9,0 7.63,-2.26 14.97,-5.01 z"
       transform="translate(520.31,156.54)" />
    <path
       id="path2386"
       style="fill:#ffffff"
       d="m 154,404.88 c 19.95,-8.59 40.61,-14.45 63,-17.88 16.03,-2.46 53.87,-2.47 70,-0.02 23.34,3.54 45.84,10.18 68.41,20.18 10.27,4.55 12.34,5.15 14.79,4.3 5.51,-1.92 6.5,-8.18 1.91,-12.04 -6.92,-5.82 -40.52,-18.32 -62.11,-23.1 -22.62,-5.01 -32.89,-6.09 -58,-6.09 -25.11,0 -35.38,1.08 -58,6.09 -21.59,4.78 -55.19,17.28 -62.11,23.1 -4.52,3.8 -3.78,9.56 1.5,11.78 2.55,1.07 3.62,1.07 6.1,-0.03 1.66,-0.74 8.19,-3.57 14.51,-6.29 z"
       transform="translate(520.31,156.54)" />
    <path
       id="path2384"
       style="fill:#ffffff"
       d="m 121.8,456.29 c 5.19,-2.68 34.81,-12.38 47.2,-15.46 14.12,-3.51 30.3,-6.41 46.5,-8.33 14.35,-1.69 58.65,-1.69 73,0 31.86,3.77 61.03,10.95 88.71,21.83 l 8.71,3.43 4.09,-2.09 c 4.57,-2.33 5.5,-3.85 4.58,-7.49 -0.81,-3.25 -6.18,-5.92 -24.59,-12.27 -78.2,-26.95 -157.8,-26.95 -236,0 -18.41,6.35 -23.78,9.02 -24.59,12.27 -0.9,3.59 0,5.14 4.29,7.4 4.61,2.43 4.72,2.44 8.1,0.71 z"
       transform="translate(520.31,156.54)" />
  </g>
  <metadata
     id="metadata24">
    <rdf:RDF>
      <cc:Work>
        <dc:format>image/svg+xml</dc:format>
        <dc:type
           rdf:resource="http://purl.org/dc/dcmitype/StillImage" />
        <cc:license
           rdf:resource="http://creativecommons.org/publicdomain/zero/1.0/" />
        <dc:publisher>
          <cc:Agent
             rdf:about="http://openclipart.org/">
            <dc:title>Openclipart</dc:title>
          </cc:Agent>
        </dc:publisher>
        <dc:title>Chess tile - Queen</dc:title>
        <dc:date>2008-08-26T09:17:47</dc:date>
        <dc:description>A light and dark (black and white) queen for use in chess board templates. Source: http://commons.wikimedia.org/wiki/Image:Chess_tile_ql.png http://commons.wikimedia.org/wiki/Image:Chess_tile_qd.png</dc:description>
        <dc:source>https://openclipart.org/detail/18659/chess-tile---queen-by-portablejim</dc:source>
        <dc:creator>
          <cc:Agent>
            <dc:title>portablejim</dc:title>
          </cc:Agent>
        </dc:creator>
        <dc:subject>
          <rdf:Bag>
            <rdf:li>black</rdf:li>
            <rdf:li>chess</rdf:li>
            <rdf:li>externalsource</rdf:li>
            <rdf:li>game</rdf:li>
            <rdf:li>icon</rdf:li>
            <rdf:li>queen</rdf:li>
            <rdf:li>white</rdf:li>
          </rdf:Bag>
        </dc:subject>
      </cc:Work>
      <cc:License
         rdf:about="http://creativecommons.org/publicdomain/zero/1.0/">
        <cc:permits
           rdf:resource="http://creativecommons.org/ns#Reproduction" />
        <cc:permits
           rdf:resource="http://creativecommons.org/ns#Distribution" />
        <cc:permits
           rdf:resource="http://creativecommons.org/ns#DerivativeWorks" />
      </cc:License>
    </rdf:RDF>
  </metadata>
</svg>
